<?xml version="1.0" encoding="utf-8"?>
<!-- Generator: Adobe Illustrator 21.1.0, SVG Export Plug-In . SVG Version: 6.00 Build 0)  -->
<svg version="1.1" id="Layer_1" xmlns="http://www.w3.org/2000/svg" xmlns:xlink="http://www.w3.org/1999/xlink" x="0px" y="0px"
	 viewBox="0 0 393.1 157" style="enable-background:new 0 0 393.1 157;" xml:space="preserve">
<style type="text/css">
	.st0{fill:#CC2535;}
	.st1{fill:#E53E3E;}
</style>
<g>
	<g>
		<path class="st0" d="M136.6,0.2c3.3,0,6.4,0.8,9.6,2.5c3.1,1.7,5.6,4.1,7.3,7.2s2.6,6.4,2.6,9.8c0,3.4-9.8,24.7-29.3,63.8
			c-19.6,39.2-30.2,60.3-31.9,63.3c-1.7,3.1-4.1,5.5-7.2,7.2c-3.1,1.7-6.3,2.6-9.7,2.6c-3.4,0-6.6-0.9-9.8-2.6
			c-3.1-1.7-5.5-4.1-7.2-7.2c-1.7-3.1-12.3-24.2-31.7-63.3C9.7,44.4,0,23.2,0,19.8c0-3.4,0.9-6.6,2.6-9.8s4.2-5.5,7.3-7.2
			c3.1-1.7,6.3-2.5,9.6-2.5c3.3,0,6.4,0.8,9.6,2.5c3.1,1.7,5.6,4.1,7.3,7.2S52,41.3,77.9,94.7C104,41.3,118,13.1,119.7,10
			s4.2-5.5,7.3-7.2C130.1,1.1,133.3,0.2,136.6,0.2z"/>
		<path class="st0" d="M195,0.4c13,0.1,19.6,6.6,19.8,19.3v117.4c-0.1,13-6.7,19.6-19.6,19.8c-13-0.3-19.5-6.8-19.5-19.7V19.9
			C175.6,7,182.1,0.5,195,0.4z"/>
	</g>
	<g>
		<path class="st1" d="M236.7,19.5c0-3.3,0.8-6.4,2.5-9.6c1.7-3.1,4.1-5.6,7.2-7.3s6.4-2.6,9.8-2.6c3.4,0,24.7,9.8,63.8,29.3
			c39.2,19.6,60.3,30.2,63.3,31.9c3.1,1.7,5.5,4.1,7.2,7.2c1.7,3.1,2.6,6.3,2.6,9.7c0,3.4-0.9,6.6-2.6,9.8c-1.7,3.1-4.1,5.5-7.2,7.2
			c-3.1,1.7-24.2,12.3-63.3,31.7c-39.2,19.5-60.4,29.2-63.8,29.2c-3.4,0-6.6-0.9-9.8-2.6s-5.5-4.2-7.2-7.3c-1.7-3.1-2.5-6.3-2.5-9.6
			c0-3.3,0.8-6.4,2.5-9.6c1.7-3.1,4.1-5.6,7.2-7.3s31.3-15.6,84.7-41.5c-53.3-26.1-81.5-40-84.7-41.8s-5.5-4.2-7.2-7.3
			C237.5,26.1,236.7,22.9,236.7,19.5z"/>
	</g>
</g>
</svg>
