<?xml version="1.0" encoding="utf-8"?>
<svg width="16px" height="16px" viewBox="0 0 16 16" version="1.1" xmlns:xlink="http://www.w3.org/1999/xlink" xmlns="http://www.w3.org/2000/svg">
  <desc>Created with Lunacy</desc>
  <defs>
    <path d="M8 0L6.59 1.41L12.17 7L0 7L0 9L12.17 9L6.59 14.59L8 16L16 8L8 0L8 0Z" id="path_1" />
    <clipPath id="mask_1">
      <use xlink:href="#path_1" />
    </clipPath>
  </defs>
  <g id="svg">
    <g id="ic_arrow_forward">
      <path d="M8 0L6.59 1.41L12.17 7L0 7L0 9L12.17 9L6.59 14.59L8 16L16 8L8 0L8 0Z" id="Mask" fill="none" stroke="none" />
      <g id="Group">
        <path d="M8 0L6.59 1.41L12.17 7L0 7L0 9L12.17 9L6.59 14.59L8 16L16 8L8 0L8 0Z" id="path_1" fill="none" stroke="none" />
        <g clip-path="url(#mask_1)">
          <g id="🎨-Color" transform="translate(-17 -17)">
            <path d="M0 0L50 0L50 50L0 50L0 0L0 0Z" id="Black" fill="#000000" stroke="none" />
          </g>
        </g>
      </g>
    </g>
  </g>
</svg>