<svg xmlns="http://www.w3.org/2000/svg" viewBox="0 0 256.1 211.1">
  <defs>
    <style>
      .cls-1 {
        fill: #c1d7dc;
      }
    </style>
  </defs>
  <title>Seeds</title>
  <g id="Layer_2" data-name="Layer 2">
    <g id="Layer_2-2" data-name="Layer 2">
      <path class="cls-1" d="M112.7,66.5c2.6-2.2,3.9-9.7,4-13,.3-6.9-2.3-20.4-4-27s-6-16.8-10-21c-1.7-1.9-6.5-4.4-9-5a25.9,25.9,0,0,0-10,0,33.3,33.3,0,0,0-8,4,28.5,28.5,0,0,0-6,5,33.3,33.3,0,0,0-4,9c-.4,2.2-.6,6.8,0,9a58.4,58.4,0,0,0,5,10c1.4,2,5.4,6.1,7,8s7.5,6.7,10,9,5.9,5.4,8,7,5.8,4.3,8,5S110.9,68.1,112.7,66.5Z"/>
      <path class="cls-1" d="M40.4,141c3.3-.4,8.6-5.8,10.6-8.5,4-5.6,9.4-18.3,11.7-24.7s4.3-17.3,3.4-23c-.4-2.5-3-7.3-4.7-9.2a28.6,28.6,0,0,0-8.3-5.5c-2.1-.8-6.6-1.1-8.9-1.2a33,33,0,0,0-7.7.8A30.6,30.6,0,0,0,28.1,75c-1.6,1.6-4.4,5.3-5,7.5a51.1,51.1,0,0,0-1.4,11.1c0,2.5,1,8,1.3,10.5s2.5,9.8,3.3,13,1.9,7.8,2.8,10.3,2.3,6.8,3.9,8.6S37.9,141.3,40.4,141Z"/>
      <path class="cls-1" d="M132.7,140c1.6-2.4,1.1-9,.4-11.9-1.3-5.8-6.6-16.7-9.5-21.9s-8.9-12.9-13.2-15.6a23.8,23.8,0,0,0-8.8-2.2,27.6,27.6,0,0,0-8.4,2.3c-1.7.9-4.6,3.8-5.9,5.2s-3.3,4-3.9,5.6A27.5,27.5,0,0,0,82,110c.1,2,1,6,2.1,7.7a40.5,40.5,0,0,0,6.5,7.3,86.3,86.3,0,0,0,7.7,5.2c2.5,1.6,7.9,4,10.5,5.3s6.2,3.3,8.4,4.2,5.8,2.3,7.9,2.4S131.5,141.9,132.7,140Z"/>
      <path class="cls-1" d="M198.9,97.2c1.7-2.4,1.1-9,.5-11.9-1.3-5.8-6.6-16.7-9.5-22S181,50.5,176.6,47.8c-1.9-1.2-6.5-2.2-8.7-2.2a28.2,28.2,0,0,0-8.5,2.3,28.5,28.5,0,0,0-5.8,5.2,23.9,23.9,0,0,0-4,5.6,24.7,24.7,0,0,0-1.3,8.5c.1,2,.9,6,2,7.6a46,46,0,0,0,6.5,7.4c1.6,1.4,5.9,4,7.7,5.2s7.9,4,10.5,5.3a93,93,0,0,0,8.4,4.1c1.9.8,5.8,2.4,7.9,2.5S197.7,99,198.9,97.2Z"/>
      <path class="cls-1" d="M187.1,176.1c2.7-1.2,5.8-7.1,6.7-9.9,2-5.6,3.4-17.7,3.7-23.6s-.7-15.6-2.9-20.2a21.7,21.7,0,0,0-6.3-6.5,22.3,22.3,0,0,0-8.3-2.6c-2-.2-5.9.7-7.8,1.2a29.2,29.2,0,0,0-6.3,2.7,25.4,25.4,0,0,0-5.7,6.5c-.9,1.7-2.3,5.5-2.3,7.5a40.1,40.1,0,0,0,1.6,9.7,71.3,71.3,0,0,0,3.8,8.5c1.2,2.7,4.5,7.6,6,10.1s3.5,6.1,4.9,8,3.7,5.1,5.4,6.2S185.1,176.9,187.1,176.1Z"/>
      <path class="cls-1" d="M123.3,198.1c1.7-2.4,1.4-9,.9-11.9-1.2-5.8-6.1-16.9-8.9-22.2s-8.5-13.1-12.7-15.9a20.3,20.3,0,0,0-8.7-2.5,22.5,22.5,0,0,0-8.5,2c-1.8.9-4.7,3.6-6.1,5s-3.4,3.9-4.1,5.5a30.4,30.4,0,0,0-1.6,8.5c.1,1.9.8,5.9,1.8,7.6a45.4,45.4,0,0,0,6.3,7.6,80.5,80.5,0,0,0,7.6,5.4c2.4,1.7,7.7,4.3,10.3,5.7s6.1,3.4,8.2,4.4,5.8,2.5,7.9,2.6S122.1,199.9,123.3,198.1Z"/>
      <path class="cls-1" d="M2.7,154.4C.6,156.5-.1,163.1,0,166c.2,6,3.3,17.7,5.2,23.4s6.3,14.3,10,17.7a22.8,22.8,0,0,0,8.2,3.8,23.7,23.7,0,0,0,8.8-.6,33,33,0,0,0,6.7-4,24.3,24.3,0,0,0,4.9-4.7,26,26,0,0,0,3-8.2,20.5,20.5,0,0,0-.6-7.8,43,43,0,0,0-5-8.5,81.1,81.1,0,0,0-6.6-6.5c-2.1-2.1-7-5.5-9.3-7.3s-5.5-4.3-7.4-5.6-5.3-3.4-7.3-3.9S4.2,152.8,2.7,154.4Z"/>
      <circle class="cls-1" cx="216.9" cy="179.5" r="12.7"/>
      <circle class="cls-1" cx="221.2" cy="132" r="12.7"/>
      <ellipse class="cls-1" cx="247.1" cy="158.2" rx="9.1" ry="7.3" transform="matrix(0.96, -0.29, 0.29, 0.96, -35.47, 79.25)"/>
    </g>
  </g>
</svg>
