<?xml version="1.0" encoding="utf-8"?>
<!-- Generator: Adobe Illustrator 23.0.0, SVG Export Plug-In . SVG Version: 6.00 Build 0)  -->
<svg version="1.1" id="Layer_1" xmlns="http://www.w3.org/2000/svg" xmlns:xlink="http://www.w3.org/1999/xlink" x="0px" y="0px"
	 viewBox="0 0 1400 630" style="enable-background:new 0 0 1400 630;" xml:space="preserve">
<style type="text/css">
	.st0{fill:#9B857B;}
	.st1{fill:#3CA9DF;}
	.st2{fill:#E95837;}
	.st3{fill:#4CAF51;}
	.st4{fill:#F9B90D;}
	.st5{fill:#F8CDD5;}
	.st6{fill:#D3D93D;}
	.st7{fill:#8E338A;}
	.st8{fill:#E6247D;}
	.st9{fill:#217ABF;}
	.st10{fill:#942081;}
	.st11{fill:#FDFDFE;}
	.st12{fill:#732582;}
	.st13{fill:#FEFDFD;}
	.st14{fill:#FEFEFE;}
</style>
<path class="st0" d="M-518.1,887.9c15.3-28,34.9-30.5,57.8-7.6c122.1,122.2,260.8,221.3,415.2,298.6c3.4,1.7,7,2.8,10.5,4.1
	c18.8,11.3,38.7,20.1,59.4,27.5c9.1,6.2,19.7,9.5,29.8,13.5c21.7,8.5,42.8,18.7,65.7,24.1c19.9,9.1,40.7,15.5,61.8,20.9
	c28.6,10.1,58.1,17.2,87.6,24.2c75.8,18.1,152.6,29.6,230.4,34.6c53.5,3.4,107,3.7,160.6,0.8c53.5-2.9,106.7-8.3,159.4-17.3
	c18.4-3.1,35.8-5.7,51.7,6.7c0.5,2.2,0.7,4.5,1.4,6.6c7.4,22.5-1.1,37.8-24.6,42.9c-23.6,5.1-47.6,8-71.5,11.3
	c-16.3,2.3-33.3,1.5-48.8,8.6c-4.5-4.8-10.2-2.1-15-1.6c-57.6,5.9-115.3,5.3-173,4.1c-99.3-2.1-197.2-16.3-293.7-39.9
	c-28-6.8-55.6-15.1-83.4-22.7c-4-1.1-7.9-2.8-12.2-1.3c-12-9.2-27.1-10.8-40.8-15.8c-6.4-2.3-12.4-7.3-20.1-5.1
	c-0.7-0.9-1.1-2.3-2-2.7c-25.2-9.7-50.5-19.4-75.8-29c-19.3-10.7-39.7-19-60-27.5c-33.9-17.9-68.2-35-101.5-53.9
	c-127.9-72.6-244.8-159.9-348.9-263.9c-7.5-7.5-14.8-15.1-20.1-24.3C-518.1,898.5-518.1,893.2-518.1,887.9z"/>
<path class="st1" d="M951.5,1346.7c4.4,56,5.7,112.1,4.8,168.3c-0.4,22.4-2.3,44.7-4.9,66.9c-2.4,19.7-17.9,30.3-38.6,27.2
	c-15-2.2-25.2-17.9-23.6-35c6-63.7,5.2-127.3,0.1-191c-0.5-7.1-0.6-14.2-1.6-21.2c-2.5-16.2-2-32.8-6.7-48.6c0.1-18-4.8-35.2-7-52.9
	c-4.3-22.6-7.5-45.4-13.8-67.5c-0.7-0.5-1.4-1-2.1-1.5l0.2,0.1c1.8-3.8,0.3-7.6-0.6-11.1C819.3,1019.7,754.4,870.6,661,734.1
	c-2-2.9-3.3-7.2-8-7.2c1.1-2.9-0.5-5.1-2-7.2c-11.4-15.7-21.9-32.1-35-46.5c-1.2-1.9-2.3-3.9-3.7-5.7
	C562.3,603.4,507,544.2,446.4,490c-14.4-12.8-27.9-26.7-44.4-37c-15.6-16-33.8-28.9-51.8-41.9c-8.9-7.9-18.4-14.9-28.5-21.2
	c-23.1-18.4-47.9-34.4-72.7-50.4c-35-22.5-70.1-44.8-107.5-63.3c-17.5-11.4-36.2-20.5-55-29.4C55.8,229.8,23.3,216-8.6,201
	c-15.4-7.2-22.7-20.2-20.2-34.5c3.8-22.1,25.2-32.1,47.5-22c34.5,15.7,68.9,31.6,102.6,49c2.7,1.4,5.5,2.4,8.3,3.6
	c18.3,9.8,36.5,19.6,54.8,29.4c24.3,14.6,48.8,29,73,43.8c47.2,28.9,92.3,61,136.8,93.8c17.1,13.8,34.2,27.5,51.3,41.3
	c1.3,1,2.7,2.1,4,3.1c5,4.2,10,8.3,15,12.5c1.3,1.4,2.5,2.9,3.9,4.1c61.2,53.2,118,110.7,169.9,173c10.4,12.5,19.3,26.3,31.4,37.4
	c0.3,0.6,0.6,1.1,1,1.6c10.9,18.7,24.3,35.6,38,52.3c2,3.2,3.9,6.5,6,9.6c75.9,110.5,134.7,229.4,175.6,357.2
	c16.6,51.7,29.5,104.3,41,157.3c3.8,21.6,7.5,43.3,11.3,64.9C945.6,1301.2,948.6,1323.9,951.5,1346.7z"/>
<path class="st2" d="M1458.4,824c27.7,12.5,56.7,21.2,85,32c18.9,7.2,27,25.9,19.2,43.3c-6.9,15.6-23.5,22.8-41.1,16.7
	c-29-10.1-57.7-20.9-86.6-31.4c-4.3-1.5-8.6-2.8-12.9-4.2c-19.7-9.2-39.6-17.8-60.1-25c-3.4-2.8-7.4-4.4-11.7-5.4
	c-20.8-9.5-41.7-19-62.5-28.5c-30.9-16.2-61.9-32.1-92.6-48.6c-55.8-30.1-109.1-64.4-161.8-99.7c-21-15.3-42.1-30.6-63.1-45.9
	c-20.7-16.7-41.4-33.4-62.1-50.1c-18.1-15.9-36.1-31.8-54.2-47.7c-2.8-3-5.5-6.2-8.5-9c-33-31.5-65-63.9-95.3-98
	c-9.6-10.8-19.3-21.4-28.9-32.1c-16.4-21-31.9-42.8-50.4-62c-15.8-26.3-34.7-50.3-52.3-75.3c-11.7-18.9-23.3-37.9-35-56.8
	c-37.3-63.1-69.4-128.7-96.9-196.6c-7.2-19.6-14.3-39.2-21.5-58.9c-5.1-18.9-10.5-37.8-15-56.8c-4.1-17,2.4-31.6,16.2-38.6
	c12.4-6.3,28-3.5,37.6,6.5c5.2,5.4,7.4,12.1,9.2,19.2c3.3,13.5,6.1,27.2,11.6,40.2c4.9,19.6,11.4,38.7,19.8,57.1
	c9.7,30.8,23.5,59.9,37.4,88.9c16.5,34.5,33.4,68.8,54.5,100.8c10.5,19.4,21.3,38.5,35.2,55.8c4.9,12.1,13.4,22,20.8,32.4
	c19.2,26.9,37.6,54.4,60.3,78.6c16.5,23.8,36.1,45,55.9,66c5.3,5.9,10.4,12,15.8,17.8c30.3,31.9,61,63.4,95,91.5
	c17.4,17.4,36,33.5,56.2,47.7c18.9,17.2,39.1,32.6,60.2,46.8c2,1.7,3.9,3.6,6,5.2c55.3,40.2,112.8,77.1,172.6,110.3
	c25.2,13.9,49.9,28.8,76.8,39.6c20,12.6,42,21.3,63.5,31c14.4,6.6,28.3,14.3,43.7,18.5C1417.7,809.4,1437.9,817.2,1458.4,824z"/>
<path class="st3" d="M970.3,627.2c21,15.3,42.1,30.6,63.1,45.9c-0.4,10.2-1.2,20.5-1.2,30.7c0.7,108.6,10.9,216.1,33.5,322.4
	c9.4,44.1,19.2,88.1,33.7,130.9c5.5,22.7,12.1,45,21.1,66.6c0.8,7.9,4.5,14.8,7.2,22c5.8,17.1,10.3,34.6,19.6,50.4
	c7.5,25.3,18.3,49.4,29.5,73.2c18.3,45.1,40.6,88.3,62.9,131.4c4.3,8.3,7.7,16.5,5.4,26.1c-3.2,13.2-13.8,23.3-26.6,25
	c-14.4,2-26.7-4-33.8-18c-16.9-33.1-33.3-66.6-49.9-99.9c-1-2-2-4.1-3-6.1c-9.4-21.2-18.9-42.5-28.3-63.7
	c-8.4-21.1-16.8-42.2-25.2-63.3c-7.4-21.4-14.8-42.8-22.2-64.2c-3.7-11.3-7.5-22.6-11.2-34c-0.1-0.8,0-1.5-0.2-2.3
	c-36.7-118.1-61-238.5-70.9-361.9C968.2,768.3,966.1,697.8,970.3,627.2z"/>
<path class="st4" d="M350.3,411c18,13.1,36.2,25.9,51.8,41.9c-52.4,57.4-99.4,119-142,184c-22,33.7-43.7,67.6-61.7,103.7
	c-12.1,19.3-22.4,39.5-31.7,60.3c-27.7,52.8-50.2,107.9-71,163.8c-29.8,80.2-52.5,162.4-70.9,245.9c-20.6-7.4-40.6-16.2-59.4-27.5
	c32.7-149.5,82.7-292.8,152-429.3c1.5-3,2.8-6.2,4.2-9.3c11.1-20.4,22.2-40.9,33.4-61.3c1.7-2.5,3.4-5,4.9-7.6
	c32.8-56.3,68.8-110.6,107.7-162.8c12.6-17,27-32.6,38.3-50.6C322.1,446.3,335.7,428.3,350.3,411z"/>
<path class="st5" d="M86.7,246.9c18.8,8.9,37.5,18,55,29.4c-0.7,1.7-1.1,3.7-2.2,5.1c-28.2,34.8-54.1,71.2-77.3,109.5
	c-15.7,25.9-32.5,51.2-44.1,79.4c-13.9,21.9-24.4,45.5-34,69.5c-14,25.9-23.4,53.8-34.3,81c-31.7,84.2-55.2,170.7-73.1,258.8
	c-8,39.6-14.5,79.5-20.6,119.5c-2.9,19.1-17.8,29-37.3,25.6c-16.1-2.8-25.6-19.6-22.9-37.3c7.4-48.6,15.6-97,25.9-145
	c10.1-47,21.8-93.6,35.6-139.7c2.5-8.3,6.1-16.4,5.4-25.4c0,0,0,0.5,0,0.5c0.8-0.8,1.6-1.7,2.4-2.5c11.4-32.6,22.8-65.1,34.2-97.7
	c15-33.7,28.3-68.2,44.7-101.3c1-2,1-4.4,1.4-6.6c14.3-21.5,25-44.9,36.5-67.9c10.4-16.6,21-33.2,31.2-49.9
	C35.7,315.5,60.6,280.7,86.7,246.9z"/>
<path class="st6" d="M1354.8,780.6c-21.5-9.7-43.5-18.4-63.5-31c-0.2-72.1-4.7-143.8-15.9-215c-3.6-22.7-5.9-45.7-13.3-67.6
	c-2.5-24-8.5-47.2-15.5-70.2c-0.2-1.2-0.5-2.4-0.7-3.6c-14.9-62.9-35.5-124-58.8-184.2c-11.9-30.8-23.4-61.7-38.9-90.9
	c10.1-26.2,20.5-52.2,33.8-76.9c24.5,47.7,45.1,97.1,64.5,147c23.7,60.9,43.9,123,60.3,186.3c0.9,3.3,2.2,6.4,3.3,9.6
	c4.7,21.2,9.5,42.5,14.2,63.7c3,15.1,6,30.1,9,45.2c4.6,33,10.2,65.9,13.7,99.1C1353.6,654.6,1356.5,717.5,1354.8,780.6z"/>
<path class="st7" d="M880.9,1313.4c4.8,15.9,4.3,32.4,6.7,48.6c1.1,7,1.1,14.1,1.6,21.2c-114.1,61.3-234.6,105.2-360.9,133.4
	c-86.2,19.2-173.3,31.5-261.3,38c-10.6,0.8-21.2,1.9-31.8,2.1c-18.5,0.3-32.4-12.6-33.3-30.4c-0.9-17.5,12.8-32.1,31.8-33.5
	c38.7-2.9,77.2-6.3,115.7-11c126.9-15.3,250.4-43.9,369.3-91.1c3.2-1.3,6.5-2.2,9.7-3.3c15.5-7.1,32.5-6.3,48.8-8.6
	c23.9-3.3,47.9-6.2,71.5-11.3c23.5-5,32-20.4,24.6-42.9c-0.7-2.1-1-4.4-1.4-6.6C874.9,1316.6,877.9,1315,880.9,1313.4z"/>
<path class="st3" d="M1181.9,40.9c-13.3,24.7-23.8,50.8-33.8,76.9c-11.2,24.9-20.3,50.7-29.1,76.5c-17.6,51.7-33.9,103.7-44.8,157.3
	c-6.1,21.4-10.9,43.1-13.6,65.1c-3.3,9.9-4.7,20.2-5.8,30.5c-5,24.4-8.4,49-10.8,73.8c-2.7,24.5-5.3,49-8,73.5
	c-21.1-14.2-41.4-29.7-60.2-46.8c3.1-25,6.2-50,9.3-75c3.5-22.1,7-44.3,10.5-66.4c4.6-21.7,9.2-43.5,13.8-65.2
	c0.6-1.8,1.4-3.5,1.9-5.3c15.3-64.5,33.9-128.1,57.1-190.2c13.6-36.5,28.7-72.4,43.1-108.6c11.7-23.1,23.1-46.3,32.9-70.3
	c6.4-8.3,11.7-18.2,23.1-20.8c12.7-2.9,24.3-0.7,33.2,9.6c9,10.5,10.5,22.3,4.8,35C1197.7,7.4,1188,23.3,1181.9,40.9z"/>
<path class="st6" d="M1176.9,1369.4c-11.3-23.8-22-47.8-29.5-73.2c8.3-15.8,18-30.8,24.7-47.4c15.1-26.8,26.9-55.1,38-83.7
	c4.2-10.8,10.5-21,10.9-33.1l-0.1,0.2c1.8,0.1,2.1-1.2,2.3-2.5c11.2-28.5,20-57.8,27.7-87.4c4.4-17.1,10.5-33.9,11.2-51.8l-0.1,0.2
	c2.4-0.1,1.7-2,2-3.3c12.6-54.6,19.6-110,23.9-165.9c20.8,9.5,41.7,19,62.5,28.5c-0.5,7.6-1,15.3-1.4,22.9
	c-2.7,19-5.1,38.2-8.3,57.1c-4.5,27.2-9.7,54.2-14.5,81.3c-12.6,49.2-25.9,98.1-43.5,145.7c-11.7,31.6-25.4,62.4-38.6,93.4
	c-10.6,20.6-21.2,41.1-31.9,61.7C1200.4,1331.2,1188.6,1350.3,1176.9,1369.4z"/>
<path class="st4" d="M671.7,213.7c-13.9-17.2-24.7-36.4-35.2-55.8C766.1,68.6,904.4-3.5,1054.8-51.2c2.4-0.8,4.7-2.2,7-3.3
	c8.1-1.7,16.2-3.3,24.3-5.2c17.1-4,32.8,4.9,38.2,21.6c4.9,15.3-2.7,31.5-18,38.4c-3.8,1.7-7.7,3.1-11.5,4.7
	c-2.2,0.4-4.5,0.6-6.6,1.2c-50,14.6-98.4,33.6-146,54.6C847,103,757.3,154.7,671.7,213.7z"/>
<path class="st5" d="M465.4-59.3c7.2,19.6,14.3,39.2,21.5,58.9C470.6,4,456.9,13.8,442.5,22c-74.2,41.8-142.3,92-203.6,151.1
	c-18.3,17.6-36.3,35.6-54.4,53.3c-18.3-9.8-36.5-19.6-54.8-29.4c24.4-29.6,52.1-56.1,80.1-82.2c29.7-27.7,61.2-53.2,93.9-77.1
	C353.1,1.5,404.9-30.8,460-57.6C461.7-58.4,463.6-58.7,465.4-59.3z"/>
<path class="st5" d="M544.7-31.8c-8.3-18.4-14.9-37.5-19.8-57.1c77.5-33.3,157.5-58.8,239.4-78.5c11.3-2.7,22.6-5.7,34.5-6.4
	c16-0.9,26.5,12.6,29.3,23.9c3.2,13.1-3.8,27.3-16.6,32.9c-17.1,7.5-35.7,9.6-53.6,14.3c-69.4,18.1-137.5,40-203.3,68.6
	C551.3-32.7,548.2-31.5,544.7-31.8z"/>
<path class="st8" d="M1333.2,492.7c-3-15.1-6-30.1-9-45.2c19.5-1.5,38.4-7.3,58.1-7.1c48.2,20.5,96.2,41.1,142.2,66.3
	c13.6,7.5,27.3,15,40.4,23.3c17.1,10.8,21.7,29.4,12,45.2c-9.6,15.5-28.4,19.4-45.9,9.2C1468,547.6,1401.8,517.5,1333.2,492.7z"/>
<path class="st9" d="M-15.9,539.8c9.7-24,20.1-47.6,34-69.5c6.2,10.6,10.9,22,18.4,31.8c9.9,19,20.6,37.6,32.8,55.2
	c26,43.7,54.3,85.8,85.6,125.9c-11.1,20.4-22.2,40.9-33.4,61.3c-37.6-48.7-72.5-99.3-105-151.6c-1.4-2.2-3-4.3-4.6-6.4
	C2.7,570.9-6.6,555.4-15.9,539.8z"/>
<path class="st10" d="M1382.3,440.4c-19.7-0.2-38.6,5.7-58.1,7.1c-4.7-21.2-9.5-42.5-14.2-63.7c55.2-8.6,110.5-15.4,166.4-17.2
	c10.6-0.3,21.3-1.1,31.9-0.5c18.8,1.2,32,15,31.9,32.2c0,17.3-13.1,30.8-32.1,32c-23.5,1.5-47.1,1.8-70.5,3.5
	C1419.1,435.2,1400.5,436.1,1382.3,440.4z"/>
<path class="st7" d="M1458.4,824c-20.6-6.8-40.7-14.6-59.9-24.8c27.2-44.8,53.4-90.1,78.1-136.3c9.7-18.1,27.9-23.6,44.3-14.7
	c16.1,8.8,21.3,27.4,11.9,45.2C1509.6,737.8,1484.7,781.3,1458.4,824z"/>
<path class="st9" d="M-17.8,401.8c-11.5,23-22.2,46.4-36.5,67.9c-23.4-47.3-47-94.4-68-142.8c-3.2-7.3-6.3-14.7-4.7-23.1
	c2.6-13.6,12.4-23.5,25.6-25.7c14-2.4,26.6,3.4,33.2,16.5c7.3,14.6,13.5,29.7,20.4,44.5C-38,360.1-27.8,381-17.8,401.8z"/>
<path class="st9" d="M1212.1,1312.1c10.6-20.6,21.2-41.1,31.9-61.7c34.6-0.1,69.1-1.7,103.4-5.9c6.8-0.8,13.6-1.7,20.3,0.4
	c13.6,4.3,22.5,16.8,22.1,31.1c-0.4,14.5-10.5,26.7-25.4,29.5c-22.5,4.2-45.3,5.2-68,6C1268.4,1312.6,1240.2,1312,1212.1,1312.1z"/>
<path class="st10" d="M90.3,1305.2c7.6-2.3,13.7,2.7,20.1,5.1c13.7,5,28.7,6.6,40.8,15.8c-15.2,32.6-30.4,65.2-45.8,97.7
	c-9,19-26.9,26.4-43.9,18.4c-16.5-7.7-22.7-26-14.6-44.5C60.5,1366.5,74.8,1335.5,90.3,1305.2z"/>
<path class="st8" d="M-100.5,577.7c-11.4,32.6-22.8,65.1-34.2,97.7c-1.3,0.4-2.4,0.9-2.4,2.5c0,0,0-0.5,0-0.5
	c-15.2,7.9-28.3,18.9-42.6,28.1c-18.3,11.9-37.5,9.6-48.1-6c-10.6-15.6-5.9-34.7,12-47.1C-178.1,626.3-140.2,600.5-100.5,577.7z"/>
<path class="st9" d="M1056.2,1236.9c7.4,21.4,14.8,42.8,22.2,64.2c-16.6,0.2-32.6-4.7-49-5.5c-28.9-5.7-57.7-11.4-86.6-17.1
	c-3.8-21.6-7.5-43.3-11.3-64.9c26.4,5.2,52.4,12.7,79.2,15.6C1025.5,1233.7,1040.9,1234.8,1056.2,1236.9z"/>
<path class="st6" d="M1094.8,5.1c3.8-1.6,7.7-3,11.5-4.7c15.3-6.9,22.8-23.1,18-38.4c-5.4-16.8-21-25.6-38.2-21.6
	c-8.1,1.9-16.2,3.5-24.3,5.2c-7.2-12.5-14.7-24.8-21.5-37.5c-8.8-16.4-4.4-33.9,10.2-42.8c15.3-9.3,33.7-5.2,43.4,11
	c17.8,29.6,35.1,59.4,50.4,90.4c-9.9,23.9-21.2,47.2-32.9,70.3C1104.8,26.8,1099.6,16.1,1094.8,5.1z"/>
<path class="st7" d="M1326.1,1011.3c4.9-27.1,10-54.2,14.5-81.3c3.2-19,5.5-38.1,8.3-57.1c4.4-5.8,8.7-11.6,13.1-17.5
	c20.5,7.2,40.5,15.7,60.1,25C1392,925.4,1361,969.8,1326.1,1011.3z"/>
<path class="st4" d="M-47.5,1246c20.3,8.5,40.7,16.8,60,27.5c-2.7,16.9-5.4,33.7-8.1,50.6c-3.2,20-17.9,32.3-36,30.2
	c-18.5-2.2-30.3-17-27.6-37.5C-56.2,1293-51.5,1269.5-47.5,1246z"/>
<path class="st7" d="M942.7,1278.4c28.9,5.7,57.7,11.4,86.6,17.1c-25.4,17.9-50.9,35.5-77.8,51.2
	C948.6,1323.9,945.6,1301.2,942.7,1278.4z"/>
<path class="st8" d="M-15.9,539.8c9.3,15.6,18.7,31.1,28,46.7c-20.8,11.5-41.5,22.9-62.3,34.4C-39.3,593.6-29.9,565.7-15.9,539.8z"
	/>
<path class="st6" d="M1103.5,1364.3c9.4,21.2,18.9,42.5,28.3,63.7c-10,4.3-19.9,6.6-30.5,1.3c-17-8.4-23.3-29-12.9-45.2
	C1092.9,1377.1,1098.5,1370.9,1103.5,1364.3z"/>
<path class="st11" d="M880.9,1313.4c-3,1.6-6,3.2-9,4.8c-15.9-12.5-33.3-9.9-51.7-6.7c-52.8,9-106,14.3-159.4,17.3
	c-53.6,2.9-107.1,2.7-160.6-0.8c-77.7-5-154.6-16.5-230.4-34.6c-29.5-7-59-14.1-87.6-24.2c1.1-2.4,2.1-4.9,3.3-7.2
	c32-57.9,66.9-114,105.5-167.8c23.9-33.4,47.8-66.7,75.6-97.1c63.3,52.5,131.2,98.4,203,138.5c96.5,53.9,197.8,96,304.5,125.1
	C876.1,1278.1,881,1295.4,880.9,1313.4z"/>
<path class="st10" d="M120.3,1248.1c38.1-72.6,82-141.7,130.3-207.9c21.2-29.1,43.7-57.2,65.7-85.8c13.5-15.9,27-31.7,40.5-47.6
	c2.7-2.6,5.6-5.1,8.1-7.9c76.1-83.7,159.3-159.5,251.1-225.7c13.1,14.4,23.6,30.8,35,46.5c1.5,2.1,3.1,4.3,2,7.2
	c-86.5,62.9-166,133.7-237.9,212.9c-3,3.3-7.2,5.8-7.6,10.9c-16.3,13.1-28.4,29.9-41,46.2c-27.7,30.4-51.7,63.7-75.6,97.1
	c-38.5,53.8-73.4,109.9-105.5,167.8c-1.3,2.3-2.2,4.8-3.3,7.2C161,1263.7,140.2,1257.2,120.3,1248.1z"/>
<path class="st9" d="M407.5,950.7c77,62.3,159.2,116.8,247.9,161.2c63.2,31.6,128.3,58.6,196.1,78.6c2.1,0.6,4.4,0.7,6.7,1.1
	c0,0-0.2-0.1-0.2-0.1c0.7,0.5,1.4,1,2.1,1.5c6.3,22.2,9.6,44.9,13.8,67.5c-106.7-29.1-208-71.2-304.5-125.1
	c-71.8-40.1-139.7-85.9-203-138.5C379.1,980.6,391.2,963.8,407.5,950.7z"/>
<path class="st8" d="M36.5,502.1c91.7-46,186.8-83.3,285.3-112.2c10.1,6.3,19.6,13.2,28.5,21.2c-14.6,17.2-28.2,35.3-44.3,51.2
	c-81.4,25.5-160.1,57.5-236.6,95.1C57.1,539.7,46.5,521.1,36.5,502.1z"/>
<path class="st4" d="M394.3,364.1c59-60.6,121.9-116.9,189.4-167.9c11.7,18.9,23.3,37.9,35,56.8c-38.4,29.6-76.3,59.8-111,93.8
	c-3.2,2.7-6.6,5.1-9.6,8c-17.5,16.8-35,33.7-52.5,50.6C428.6,391.6,411.4,377.8,394.3,364.1z"/>
<path class="st8" d="M721.4,390.3c-57.4,3.6-114.9,7-171.8,16.1c-28.4,4.5-56.7,9.7-85,14.6c-5-4.2-10-8.3-15-12.5
	c14.1-8.2,28.1-16.3,42.2-24.6c26.1-15.3,53.2-29,78.5-45.8c33.4-5.1,66.9-8.4,100.7-9.9C689.6,347.5,705,369.3,721.4,390.3z"/>
<path class="st10" d="M669.9,635.5C728.9,596,790.5,561,854.1,529.4c18.1,15.9,36.1,31.8,54.2,47.7c-43.7,20.2-86,42.9-127.7,67
	c0.3-9.5-4.5-12.4-13.5-11.9c-32,1.8-64.1,3.3-96.2,4.8C670.5,636.6,670.1,636,669.9,635.5z"/>
<path class="st12" d="M670.9,637c32.1-1.6,64.1-3,96.2-4.8c9-0.5,13.8,2.4,13.5,11.9c-23.9,15.1-47.8,30.2-71.8,45.3
	C695.2,672.6,681.8,655.8,670.9,637z"/>
<path class="st10" d="M570.4,338.1c-25.2,16.8-52.4,30.5-78.5,45.8c-14,8.2-28.1,16.4-42.2,24.6c-1.4-1-2.7-2.1-4-3.1
	c17.5-16.9,34.9-33.8,52.5-50.6c3-2.9,6.4-5.4,9.6-8C528.7,344.6,549.2,339,570.4,338.1z"/>
<path class="st11" d="M860.1,1192.9c-0.7-0.5-1.4-1-2.1-1.5C858.7,1191.9,859.4,1192.4,860.1,1192.9z"/>
<path class="st8" d="M752.8,324.7c61.6-1.9,123,1.6,184.2,7.5c24.2,2.4,48.2,5.8,72.3,8.8c-4.6,21.8-9.2,43.5-13.8,65.3
	c-61.9-9.2-124.2-14.4-186.8-15.6C788.9,369.7,769.3,348.5,752.8,324.7z"/>
<path class="st10" d="M919.5,500c21.2-10.6,43.5-18.7,65.5-27.3c-3.1,25-6.2,50-9.3,75C955.5,533.5,936.9,517.4,919.5,500z"/>
<path class="st13" d="M1362,855.4c-4.4,5.8-8.7,11.6-13.1,17.5c0.5-7.6,1-15.3,1.4-22.9C1354.6,851,1358.6,852.6,1362,855.4z"/>
<path class="st7" d="M1099.5,1157.2c56.3-49.9,108.6-103.8,156.8-161.6c1.6-2,3.8-3.5,5.8-5.2c-0.7,17.9-6.8,34.7-11.2,51.8
	c-7.7,29.6-16.5,58.9-27.7,87.4c-0.8,0.8-1.5,1.7-2.3,2.5c0,0,0.1-0.2,0.1-0.2c-3.1,2.7-6.3,5.3-9.2,8.2c-29.4,29-59,57.7-91.2,83.6
	C1111.6,1202.2,1105,1179.9,1099.5,1157.2z"/>
<path class="st13" d="M1120.6,1223.8c32.2-25.8,61.8-54.6,91.2-83.6c2.9-2.9,6.2-5.5,9.2-8.2c-0.4,12.1-6.7,22.3-10.9,33.1
	c-11.2,28.5-22.9,56.9-38.1,83.7c-14.8-1-29.5-2-44.3-3C1125.1,1238.6,1121.5,1231.6,1120.6,1223.8z"/>
<path class="st9" d="M1127.8,1245.8c14.8,1,29.5,2,44.3,3c-6.7,16.6-16.4,31.7-24.7,47.4C1138.1,1280.5,1133.6,1262.9,1127.8,1245.8
	z"/>
<path class="st7" d="M1010.6,1229c11.4-8.7,22.9-17.4,34.3-26.1c3.7,11.3,7.5,22.6,11.2,34C1040.9,1234.8,1025.5,1233.7,1010.6,1229
	z"/>
<path class="st9" d="M198.4,740.7c15.2,17.5,30.5,34.9,45.7,52.4c-2,18.6,2,37.1,0.9,55.6c-0.5,7.9,3.6,13.2,7.7,18.7
	c1.3,1.7,2.8,4.2,5.3,3.3c2.9-0.9,2-3.7,1.6-5.8c-3.5-18.4-1.2-36.9-1.5-55.3c32,33.3,64.3,66.4,98.7,97.3
	c-13.5,15.9-27,31.7-40.5,47.6c-53.4-47.7-102.5-99.6-149.5-153.5C176,780.2,186.3,759.9,198.4,740.7z"/>
<path class="st14" d="M-137.1,677.9c0-1.6,1.1-2.1,2.4-2.5C-135.5,676.2-136.3,677.1-137.1,677.9z"/>
<path class="st10" d="M1262.1,466.9c-10.7-4.6-21.2-3-32.1-0.4c-63.1,14.7-124.9,33.3-186.1,54.5c2.4-24.8,5.8-49.4,10.8-73.8
	c20.1-6.8,40.8-11.6,60.5-19.8c9.2-0.4,17.6-4.3,26.4-6.5c34.8-8.9,69.3-18.9,104.9-24.2C1253.5,419.7,1259.5,442.9,1262.1,466.9z"
	/>
<path class="st8" d="M1246.5,396.7c-35.6,5.3-70.1,15.3-104.9,24.2c-8.8,2.2-17.2,6.1-26.4,6.5c-18.2-3.5-36.4-7.1-54.6-10.6
	c2.8-22.1,7.5-43.7,13.6-65.1c57.9,11.1,114.9,25.4,171.6,41.4C1246.1,394.2,1246.3,395.4,1246.5,396.7z"/>
<path class="st7" d="M1262,990.6c-0.2-1.6,0.5-2.7,2-3.3C1263.6,988.6,1264.4,990.5,1262,990.6z"/>
<path class="st13" d="M1220.9,1132.2c0.8-0.8,1.5-1.7,2.3-2.5C1223,1131,1222.8,1132.3,1220.9,1132.2z"/>
<path class="st1" d="M258,809.5c0.3,18.4-2,36.9,1.5,55.3c0.4,2.1,1.3,4.9-1.6,5.8c-2.6,0.8-4.1-1.6-5.3-3.3
	c-4.1-5.6-8.2-10.8-7.7-18.7c1.1-18.5-2.9-37-0.9-55.6c3.1-5,6.3-9.9,10.1-16C257.3,788.4,253.4,799.5,258,809.5z"/>
</svg>
