<svg xmlns="http://www.w3.org/2000/svg" viewBox="0 0 139.9 384.2">
  <defs>
    <style>
      .cls-1 {
        fill: #b9dbe1;
      }
    </style>
  </defs>
  <title>Leaves</title>
  <g id="Layer_2" data-name="Layer 2">
    <g id="Leaves">
      <path class="cls-1" d="M139.3,0c-.8-.4-14.6,16.2-18.4,22.3-5.3,8.4-13.3,26.6-16.8,35.8S95.6,84.8,93,93.8s-6.9,25.6-8.9,34.1c-.8,3.6-2.4,10.6-3,14.2s-1.3,9.3-1.5,12.5a34.7,34.7,0,0,1-1,6.4,97.4,97.4,0,0,0-1.4,10.9c-.7,7-1.5,15.5-2.1,24-1,13.7-2.7,38.8-2.4,53,.7,29,7.1,97.5,7.2,98.2a1.5,1.5,0,0,0,1.5,1.4h.1a1.5,1.5,0,0,0,1.4-1.6c-.1-.7-6.5-69.2-7.2-98-.6-22.8,4.1-76.6,5.4-85.3h0c3.7-.6,11.2-2.2,14.2-4.4,5.9-4.3,13.3-17.8,16.7-24.3,5.4-10.4,12.3-32.9,15.1-44.3s6.8-37.1,8.9-50.8c1.2-7.6,2.6-23.6,3-31.6C139.1,4.9,140.6.7,139.3,0Z"/>
      <path class="cls-1" d="M6,49.2C5.1,49.2.7,70.4.2,77.6c-.8,9.8.8,29.6,2,39.4s5.1,27.6,7.1,36.8,5.9,25.7,8.1,34.2c1,3.5,2.9,10.5,4,14s3.3,8.8,4.5,11.7a32.9,32.9,0,0,1,2.2,6.1A101.2,101.2,0,0,0,32,230.2c2.6,6.4,6,14.3,9.4,22.1,5.5,12.6,15.8,35.5,22.8,47.9,14.3,25.3,52.2,82.7,52.6,83.3a1.3,1.3,0,0,0,1.9.5c.1,0,.1,0,.1-.1a1.6,1.6,0,0,0,.5-2.1c-.4-.5-38.3-57.9-52.5-83.1C55.7,278.9,34.5,229.3,31.5,221h0c3-2.2,8.9-7.1,10.5-10.5,3.2-6.6,3.4-21.9,3.3-29.3-.1-11.7-4.6-34.9-7.5-46.2s-11.4-36-16-49C19.2,78.6,13,63.8,9.5,56.6,8.1,53.6,7.5,49.2,6,49.2Z"/>
    </g>
  </g>
</svg>
